Patient5_TMGait_0pt45_1_left_10_GRF.mot
version=1
nRows=51
nColumns=19
inDegrees=no
endheader
time	F1x	F1y	F1z	M1x	M1y	M1z	F2x	F2y	F2z	M2x	M2y	M2z	EC1x	EC1y	EC1z	EC2x	EC2y	EC2z
15.15	40.2268	216.4231	2.4367	-78.5429	12.4998	182.9302	-73.9299	586.2879	-68.9202	217.4842	103.9998	648.7636	-0.0592	0.0182	-0.0073	-0.0462	0.0165	0.9585
15.1679	30.2034	172.4463	0.5917	-63.2261	10.7983	146.204	-58.8134	655.443	-60.8671	242.4285	89.196	719.0681	-0.0592	0.0182	-0.0073	-0.0462	0.0165	0.9585
15.1859	19.7918	128.0054	-0.95722	-47.4651	8.4828	109.0235	-45.8266	730.4438	-55.9156	269.9715	78.3886	793.8425	-0.0592	0.0182	-0.0073	-0.0462	0.0165	0.9585
15.2038	10.4956	88.4143	-1.9389	-33.2037	5.911	75.7814	-35.6802	801.43	-54.3885	296.4012	72.1913	862.6955	-0.0592	0.0182	-0.0073	-0.0462	0.0165	0.9585
15.2217	3.3565	56.3608	-2.2666	-21.4854	3.476	48.7681	-27.8715	859.7932	-55.4665	318.3636	69.5559	916.8418	-0.0592	0.0182	-0.0073	-0.0462	0.0165	0.9585
15.2396	-1.0886	32.3364	-2.0303	-12.5653	1.5269	28.4428	-21.4923	899.5513	-57.833	333.4779	68.7678	950.4749	-0.0592	0.0182	-0.0073	-0.0462	0.0165	0.9585
15.2576	-2.8328	15.7017	-1.4635	-6.2888	0.31491	14.3113	-15.5802	917.9353	-60.3955	340.568	68.3257	961.2809	-0.0592	0.0182	-0.0073	-0.0462	0.0165	0.9585
15.2755	-2.6537	5.5355	-0.86762	-2.3883	-0.16801	5.6298	-9.2919	915.724	-62.6214	339.7953	67.3469	950.6487	-0.0592	0.0182	-0.0073	-0.0462	0.0165	0.9585
15.2934	-1.6546	0.50951	-0.41357	-0.412	-0.18958	1.348	-2.1006	897.3992	-64.3568	332.7533	65.4874	923.7257	-0.0592	0.0182	-0.0073	-0.0462	0.0165	0.9585
15.3114	-0.52731	-1.1027	-0.12568	0.26869	-0.00053949	0.02563	5.9225	870.3371	-65.6275	322.1822	62.8471	888.4855	-0.0592	0.0182	-0.0073	-0.0462	0.0165	0.9585
15.3293	0.4049	-0.85523	0.026886	0.23336	0.23378	0.28135	13.999	842.5813	-66.5021	311.131	59.8522	853.3716	-0.0592	0.0182	-0.0073	-0.0462	0.0165	0.9585
15.3472	1.0521	0.080662	0.098619	-0.076062	0.41814	1.0668	20.8391	820.1556	-66.9927	301.9384	57.0638	824.5899	-0.0592	0.0182	-0.0073	-0.0462	0.0165	0.9585
15.3651	1.447	0.90834	0.15022	-0.35284	0.50908	1.6824	25.3499	805.9039	-67.1198	295.7695	54.9528	804.9278	-0.0592	0.0182	-0.0073	-0.0462	0.0165	0.9585
15.3831	1.6565	1.1204	0.24051	-0.39659	0.47169	1.6502	27.3716	800.1016	-66.936	292.8098	53.6233	794.3939	-0.0592	0.0182	-0.0073	-0.0462	0.0165	0.9585
15.401	1.7337	0.41585	0.41539	-0.081996	0.27191	0.62814	27.7681	801.5651	-66.448	292.665	52.7203	791.4266	-0.0592	0.0182	-0.0073	-0.0462	0.0165	0.9585
15.4189	1.6918	-1.3392	0.69029	0.65178	-0.10054	-1.5678	27.8611	808.2385	-65.7192	294.5617	51.7695	793.6218	-0.0592	0.0182	-0.0073	-0.0462	0.0165	0.9585
15.4369	1.4961	-4.02	1.0229	1.7581	-0.60894	-4.8361	28.8472	817.5708	-64.9847	297.494	50.5069	798.2038	-0.0592	0.0182	-0.0073	-0.0462	0.0165	0.9585
15.4548	1.0518	-7.0507	1.2809	2.9966	-1.1296	-8.5222	31.4741	827.249	-64.5352	300.5335	48.9012	802.751	-0.0592	0.0182	-0.0073	-0.0462	0.0165	0.9585
15.4727	0.24824	-9.1028	1.2017	3.8091	-1.3745	-11.0611	35.8503	835.9081	-64.4852	303.1295	47.0297	805.8926	-0.0592	0.0182	-0.0073	-0.0462	0.0165	0.9585
15.4906	-0.97539	-7.7461	0.37322	3.1837	-0.85081	-9.5652	41.4027	842.9714	-64.6842	305.0636	44.9979	807.1767	-0.0592	0.0182	-0.0073	-0.0462	0.0165	0.9585
15.5086	-2.5471	0.75528	-1.7464	-0.42243	1.1524	0.43033	46.9837	847.8336	-64.8012	306.1367	42.9523	806.295	-0.0592	0.0182	-0.0073	-0.0462	0.0165	0.9585
15.5265	-4.1232	21.208	-5.7342	-8.9762	5.5052	24.6936	51.2165	849.0583	-64.4779	305.8556	41.0798	802.2738	-0.0592	0.0182	-0.0073	-0.0462	0.0165	0.9585
15.5444	-4.8916	58.3638	-11.9187	-24.3987	12.9762	68.9685	52.9789	844.0929	-63.4476	303.3212	39.5314	793.1101	-0.0592	0.0182	-0.0073	-0.0462	0.0165	0.9585
15.5624	-3.5282	114.5052	-19.8808	-47.5649	23.6157	136.1062	51.7611	829.6685	-61.5612	297.3799	38.3282	776.051	-0.0592	0.0182	-0.0073	-0.0462	0.0165	0.9585
15.5803	0.29545	186.5189	-27.741	-77.086	35.2557	222.4974	47.7382	802.701	-58.7352	286.9669	37.2977	748.3533	-0.0592	0.0182	-0.0073	-0.0462	0.0165	0.9585
15.5982	2.6491	264.5506	-31.6434	-108.7723	41.6277	316.5776	41.6779	761.3648	-54.8846	271.4974	36.0717	708.2499	-0.0592	0.0182	-0.0073	-0.0462	0.0165	0.9585
15.6161	-0.46752	337.0925	-28.3384	-137.8335	37.1638	405.0652	34.6541	705.5981	-49.9329	251.0355	34.2044	655.4768	-0.0592	0.0182	-0.0073	-0.0462	0.0165	0.9585
15.6341	-8.6483	399.9565	-18.7678	-162.6049	23.0896	483.0291	27.651	637.15	-43.8348	226.2777	31.3221	591.4264	-0.0592	0.0182	-0.0073	-0.0462	0.0165	0.9585
15.652	-19.5919	454.4083	-6.8338	-183.8193	5.0588	551.5103	21.2318	559.2239	-36.6946	198.3931	27.327	518.9184	-0.0592	0.0182	-0.0073	-0.0462	0.0165	0.9585
15.6699	-30.7955	503.4956	3.8035	-202.9307	-11.5005	613.6471	15.5135	476.1061	-28.8586	168.8809	22.4709	441.8737	-0.0592	0.0182	-0.0073	-0.0462	0.0165	0.9585
15.6879	-40.6386	549.5414	11.3019	-220.9683	-23.6956	671.7866	10.3855	392.9423	-20.9203	139.5022	17.2901	365.0241	-0.0592	0.0182	-0.0073	-0.0462	0.0165	0.9585
15.7058	-48.3288	593.6395	16.1582	-238.2616	-31.7867	726.8388	5.7435	314.8404	-13.6409	111.9827	12.4639	293.0284	-0.0592	0.0182	-0.0073	-0.0462	0.0165	0.9585
15.7237	-53.7869	636.2316	20.2122	-254.7299	-37.9574	779.0784	1.5992	245.7851	-7.7856	87.6483	8.6387	229.4737	-0.0592	0.0182	-0.0073	-0.0462	0.0165	0.9585
15.7416	-57.5541	676.9605	25.1322	-269.978	-44.4203	827.9951	-1.9512	187.9871	-3.8979	67.2224	6.2474	176.2632	-0.0592	0.0182	-0.0073	-0.0462	0.0165	0.9585
15.7596	-60.2564	715.3731	31.4287	-283.6896	-52.0314	873.0579	-4.8947	141.8041	-2.0739	50.8161	5.3803	133.6048	-0.0592	0.0182	-0.0073	-0.0462	0.0165	0.9585
15.7775	-62.2266	751.0877	38.4409	-295.7323	-60.1454	913.8219	-7.3546	106.1829	-1.9275	38.0823	5.7829	100.496	-0.0592	0.0182	-0.0073	-0.0462	0.0165	0.9585
15.7954	-63.4777	783.1149	45.0207	-305.8589	-67.4535	949.1429	-9.4398	79.3014	-2.806	28.4182	6.9682	75.3095	-0.0592	0.0182	-0.0073	-0.0462	0.0165	0.9585
15.8134	-63.8643	809.8968	50.238	-313.6599	-72.8929	977.286	-11.1238	59.0831	-4.0159	21.126	8.346	56.207	-0.0592	0.0182	-0.0073	-0.0462	0.0165	0.9585
15.8313	-63.305	830.0514	53.906	-318.797	-76.2858	996.8444	-12.2018	43.5578	-4.9998	15.5301	9.3638	41.4402	-0.0592	0.0182	-0.0073	-0.0462	0.0165	0.9585
15.8492	-61.8607	843.1613	56.3345	-321.2736	-78.0392	1007.612	-12.3644	31.1762	-5.4108	11.084	9.6037	29.6304	-0.0592	0.0182	-0.0073	-0.0462	0.0165	0.9585
15.8671	-59.6929	849.8874	57.8381	-321.4687	-78.5819	1010.6428	-11.288	20.9645	-5.09	7.4358	8.798	19.89	-0.0592	0.0182	-0.0073	-0.0462	0.0165	0.9585
15.8851	-56.9755	851.4794	58.4603	-319.9579	-78.025	1007.6221	-8.9018	12.5538	-4.0707	4.4473	6.9384	11.8746	-0.0592	0.0182	-0.0073	-0.0462	0.0165	0.9585
15.903	-53.8371	849.3498	58.0826	-317.3484	-76.2753	1000.3258	-5.8711	6.176	-2.6899	2.1952	4.554	5.7826	-0.0592	0.0182	-0.0073	-0.0462	0.0165	0.9585
15.9209	-50.3499	844.8709	56.6565	-314.2023	-73.2983	990.363	-3.1876	2.054	-1.4599	0.75038	2.448	1.8497	-0.0592	0.0182	-0.0073	-0.0462	0.0165	0.9585
15.9389	-46.5664	839.3648	54.3171	-311.0328	-69.2558	979.189	-1.2622	-0.16211	-0.56597	-0.016888	0.9294	-0.24599	-0.0592	0.0182	-0.0073	-0.0462	0.0165	0.9585
15.9568	-42.5606	834.2972	51.3812	-308.3739	-64.5197	968.3978	-0.10174	-1.0422	-0.031972	-0.31387	0.018321	-1.0636	-0.0592	0.0182	-0.0073	-0.0462	0.0165	0.9585
15.9747	-38.4466	831.2009	48.2467	-306.7749	-59.5703	959.6502	0.45836	-1.1415	0.22089	-0.33907	-0.41386	-1.1243	-0.0592	0.0182	-0.0073	-0.0462	0.0165	0.9585
15.9926	-34.3902	831.3908	45.2425	-306.6975	-54.8254	954.3783	0.62138	-0.89069	0.30782	-0.24391	-0.54478	-0.83145	-0.0592	0.0182	-0.0073	-0.0462	0.0165	0.9585
16.0106	-30.5697	835.659	42.556	-308.4066	-50.5467	953.4712	0.56686	-0.56	0.30921	-0.12039	-0.5151	-0.45705	-0.0592	0.0182	-0.0073	-0.0462	0.0165	0.9585
16.0285	-27.1852	843.8395	40.2613	-311.8172	-46.8826	956.8209	0.43156	-0.27829	0.27603	-0.013891	-0.42315	-0.13555	-0.0592	0.0182	-0.0073	-0.0462	0.0165	0.9585
16.0464	-24.3892	854.4309	38.3894	-316.3704	-43.9283	962.8669	0.29972	-0.071184	0.24197	0.062344	-0.33684	0.10923	-0.0592	0.0182	-0.0073	-0.0462	0.0165	0.9585
